<?xml version="1.0" encoding="utf-8"?>
<!-- Generator: Adobe Illustrator 15.1.0, SVG Export Plug-In . SVG Version: 6.00 Build 0)  -->
<!DOCTYPE svg PUBLIC "-//W3C//DTD SVG 1.1//EN" "http://www.w3.org/Graphics/SVG/1.1/DTD/svg11.dtd">
<svg version="1.1" id="Layer_1" xmlns="http://www.w3.org/2000/svg" xmlns:xlink="http://www.w3.org/1999/xlink" x="0px" y="0px"
	 width="892px" height="402.704px" viewBox="0 0 892 402.704" enable-background="new 0 0 892 402.704" xml:space="preserve">
<g>
	<g>
		<g>
			<path d="M129.27,318.321l-19.487,65H98.992l-13.394-46.528c-0.508-1.777-0.847-3.787-1.016-6.03h-0.254
				c-0.127,1.523-0.571,3.491-1.333,5.903l-14.536,46.655h-10.41l-19.678-65H49.29l13.457,48.877
				c0.422,1.481,0.719,3.428,0.889,5.84h0.508c0.127-1.861,0.508-3.851,1.143-5.967l14.98-48.75h9.521l13.457,49.004
				c0.422,1.566,0.74,3.513,0.952,5.84h0.508c0.084-1.65,0.444-3.597,1.079-5.84l13.203-49.004H129.27z"/>
			<path d="M204.68,379.513c-6.729,3.555-15.107,5.332-25.137,5.332c-12.949,0-23.318-4.168-31.104-12.505
				c-7.787-8.336-11.68-19.275-11.68-32.817c0-14.557,4.38-26.321,13.14-35.293c8.76-8.971,19.868-13.457,33.325-13.457
				c8.633,0,15.784,1.249,21.455,3.745v11.362c-6.517-3.639-13.711-5.459-21.582-5.459c-10.453,0-18.927,3.491-25.422,10.474
				c-6.497,6.982-9.744,16.313-9.744,27.993c0,11.088,3.036,19.922,9.109,26.502c6.072,6.58,14.038,9.87,23.899,9.87
				c9.141,0,17.053-2.031,23.74-6.094V379.513z"/>
			<path d="M274.377,383.321h-10.41v-10.283h-0.254c-4.316,7.871-11.003,11.807-20.059,11.807c-15.488,0-23.232-9.225-23.232-27.676
				v-38.848h10.347v37.197c0,13.711,5.247,20.566,15.742,20.566c5.078,0,9.257-1.873,12.537-5.617
				c3.279-3.746,4.919-8.644,4.919-14.695v-37.451h10.41V383.321z"/>
			<path d="M306.052,373.927h-0.254v9.395h-10.41v-96.23h10.41v42.656h0.254c5.12-8.633,12.61-12.949,22.471-12.949
				c8.336,0,14.863,2.91,19.583,8.729c4.718,5.818,7.078,13.615,7.078,23.391c0,10.876-2.645,19.582-7.935,26.121
				c-5.291,6.537-12.527,9.807-21.709,9.807C316.948,384.845,310.453,381.206,306.052,373.927z M305.798,347.711v9.077
				c0,5.375,1.746,9.934,5.237,13.68c3.491,3.744,7.924,5.617,13.298,5.617c6.305,0,11.245-2.412,14.822-7.236
				c3.576-4.824,5.364-11.531,5.364-20.122c0-7.236-1.672-12.906-5.015-17.012c-3.343-4.104-7.871-6.157-13.584-6.157
				c-6.052,0-10.918,2.105-14.6,6.316S305.798,341.363,305.798,347.711z"/>
			<path d="M424.055,353.424h-45.894c0.168,7.236,2.116,12.822,5.84,16.758c3.723,3.936,8.844,5.903,15.361,5.903
				c7.321,0,14.049-2.412,20.186-7.236v9.775c-5.713,4.147-13.267,6.221-22.661,6.221c-9.183,0-16.399-2.951-21.646-8.855
				c-5.248-5.902-7.871-14.207-7.871-24.914c0-10.113,2.866-18.354,8.601-24.725c5.734-6.368,12.854-9.553,21.36-9.553
				s15.085,2.751,19.741,8.252c4.655,5.502,6.982,13.14,6.982,22.915V353.424z M413.391,344.601
				c-0.042-6.009-1.492-10.685-4.348-14.028c-2.856-3.343-6.824-5.015-11.902-5.015c-4.91,0-9.077,1.757-12.505,5.269
				c-3.428,3.513-5.544,8.104-6.348,13.774H413.391z"/>
			<path d="M567.703,383.321h-10.41v-37.324c0-7.193-1.111-12.398-3.333-15.615c-2.222-3.216-5.957-4.824-11.204-4.824
				c-4.443,0-8.22,2.031-11.331,6.094s-4.666,8.93-4.666,14.6v37.07h-10.41v-38.594c0-12.779-4.93-19.17-14.79-19.17
				c-4.57,0-8.337,1.915-11.299,5.744c-2.962,3.831-4.443,8.813-4.443,14.949v37.07h-10.41v-65h10.41v10.283h0.254
				c4.612-7.871,11.34-11.807,20.186-11.807c4.443,0,8.315,1.238,11.616,3.713c3.301,2.477,5.564,5.725,6.792,9.744
				c4.824-8.971,12.018-13.457,21.582-13.457c14.303,0,21.455,8.823,21.455,26.47V383.321z"/>
			<path d="M639.622,353.424h-45.894c0.168,7.236,2.115,12.822,5.84,16.758c3.723,3.936,8.844,5.903,15.361,5.903
				c7.32,0,14.049-2.412,20.186-7.236v9.775c-5.713,4.147-13.267,6.221-22.661,6.221c-9.184,0-16.399-2.951-21.646-8.855
				c-5.248-5.902-7.871-14.207-7.871-24.914c0-10.113,2.866-18.354,8.601-24.725c5.734-6.368,12.854-9.553,21.36-9.553
				s15.085,2.751,19.741,8.252c4.654,5.502,6.982,13.14,6.982,22.915V353.424z M628.958,344.601
				c-0.043-6.009-1.492-10.685-4.349-14.028c-2.856-3.343-6.823-5.015-11.901-5.015c-4.91,0-9.077,1.757-12.505,5.269
				c-3.428,3.513-5.545,8.104-6.348,13.774H628.958z"/>
			<path d="M710.843,383.321h-10.41v-11.045h-0.254c-4.824,8.379-12.273,12.568-22.344,12.568c-8.168,0-14.695-2.909-19.583-8.729
				c-4.888-5.817-7.331-13.742-7.331-23.771c0-10.748,2.707-19.36,8.125-25.835c5.416-6.475,12.632-9.712,21.646-9.712
				c8.928,0,15.425,3.513,19.487,10.537h0.254v-40.244h10.41V383.321z M700.433,353.932v-9.585c0-5.247-1.736-9.69-5.205-13.33
				c-3.471-3.639-7.871-5.459-13.203-5.459c-6.348,0-11.342,2.328-14.98,6.982c-3.641,4.655-5.459,11.088-5.459,19.297
				c0,7.49,1.745,13.404,5.236,17.742s8.178,6.506,14.061,6.506c5.797,0,10.505-2.095,14.123-6.284S700.433,360.322,700.433,353.932
				z"/>
			<path d="M737.249,301.817c-1.863,0-3.45-0.635-4.761-1.904c-1.313-1.27-1.968-2.877-1.968-4.824c0-1.946,0.655-3.564,1.968-4.855
				c1.311-1.291,2.897-1.937,4.761-1.937c1.904,0,3.522,0.646,4.855,1.937s2,2.909,2,4.855c0,1.862-0.667,3.449-2,4.761
				C740.771,301.162,739.153,301.817,737.249,301.817z M742.327,383.321h-10.41v-65h10.41V383.321z"/>
			<path d="M809.93,383.321h-10.41v-10.156h-0.254c-4.529,7.787-11.194,11.68-19.995,11.68c-6.475,0-11.543-1.714-15.203-5.142
				s-5.49-7.977-5.49-13.647c0-12.145,7.15-19.212,21.455-21.201l19.487-2.729c0-11.045-4.466-16.567-13.394-16.567
				c-7.83,0-14.896,2.666-21.201,7.998v-10.664c6.389-4.063,13.752-6.094,22.09-6.094c15.275,0,22.915,8.083,22.915,24.248V383.321z
				 M799.52,350.44l-15.679,2.158c-4.824,0.678-8.465,1.873-10.918,3.586c-2.455,1.715-3.682,4.751-3.682,9.109
				c0,3.174,1.132,5.767,3.396,7.775c2.264,2.011,5.278,3.016,9.046,3.016c5.162,0,9.426-1.809,12.79-5.428
				c3.364-3.617,5.047-8.198,5.047-13.742V350.44z"/>
		</g>
		<g>
			<g>
				<path fill="#F7941E" d="M126.436,315.486l-19.487,65H96.157l-13.394-46.528c-0.508-1.777-0.847-3.787-1.016-6.03h-0.254
					c-0.127,1.523-0.571,3.491-1.333,5.903l-14.536,46.655h-10.41l-19.678-65h10.918l13.457,48.877
					c0.422,1.481,0.719,3.428,0.889,5.84h0.508c0.127-1.861,0.508-3.851,1.143-5.967l14.98-48.75h9.521l13.457,49.004
					c0.422,1.566,0.74,3.513,0.952,5.84h0.508c0.084-1.65,0.444-3.597,1.079-5.84l13.203-49.004H126.436z"/>
				<path fill="#F7941E" d="M201.846,376.678c-6.729,3.555-15.107,5.332-25.137,5.332c-12.949,0-23.318-4.168-31.104-12.505
					c-7.787-8.336-11.68-19.275-11.68-32.817c0-14.557,4.38-26.321,13.14-35.293c8.76-8.971,19.868-13.457,33.325-13.457
					c8.633,0,15.784,1.249,21.455,3.745v11.362c-6.517-3.639-13.711-5.459-21.582-5.459c-10.453,0-18.927,3.491-25.422,10.474
					c-6.497,6.982-9.744,16.313-9.744,27.993c0,11.088,3.036,19.922,9.109,26.502c6.072,6.58,14.038,9.87,23.899,9.87
					c9.141,0,17.053-2.031,23.74-6.094V376.678z"/>
				<path fill="#F7941E" d="M271.543,380.486h-10.41v-10.283h-0.254c-4.316,7.871-11.003,11.807-20.059,11.807
					c-15.488,0-23.232-9.225-23.232-27.676v-38.848h10.347v37.197c0,13.711,5.247,20.566,15.742,20.566
					c5.078,0,9.257-1.873,12.537-5.617c3.279-3.746,4.919-8.644,4.919-14.695v-37.451h10.41V380.486z"/>
				<path fill="#F7941E" d="M303.218,371.092h-0.254v9.395h-10.41v-96.23h10.41v42.656h0.254c5.12-8.633,12.61-12.949,22.471-12.949
					c8.336,0,14.863,2.91,19.583,8.729c4.718,5.818,7.078,13.615,7.078,23.391c0,10.876-2.645,19.582-7.935,26.121
					c-5.291,6.537-12.527,9.807-21.709,9.807C314.114,382.01,307.619,378.371,303.218,371.092z M302.964,344.876v9.077
					c0,5.375,1.746,9.934,5.237,13.68c3.491,3.744,7.924,5.617,13.298,5.617c6.305,0,11.245-2.412,14.822-7.236
					c3.576-4.824,5.364-11.531,5.364-20.122c0-7.236-1.672-12.906-5.015-17.012c-3.343-4.104-7.871-6.157-13.584-6.157
					c-6.052,0-10.918,2.105-14.6,6.316S302.964,338.528,302.964,344.876z"/>
				<path fill="#F7941E" d="M421.221,350.589h-45.894c0.168,7.236,2.116,12.822,5.84,16.758c3.723,3.936,8.844,5.903,15.361,5.903
					c7.321,0,14.049-2.412,20.186-7.236v9.775c-5.713,4.147-13.267,6.221-22.661,6.221c-9.183,0-16.399-2.951-21.646-8.855
					c-5.248-5.902-7.871-14.207-7.871-24.914c0-10.113,2.866-18.354,8.601-24.725c5.734-6.368,12.854-9.553,21.36-9.553
					s15.085,2.751,19.741,8.252c4.655,5.502,6.982,13.14,6.982,22.915V350.589z M410.557,341.766
					c-0.042-6.009-1.492-10.685-4.348-14.028c-2.856-3.343-6.824-5.015-11.902-5.015c-4.91,0-9.077,1.757-12.505,5.269
					c-3.428,3.513-5.544,8.104-6.348,13.774H410.557z"/>
				<path fill="#009444" d="M564.868,380.486h-10.41v-37.324c0-7.193-1.111-12.398-3.333-15.615
					c-2.222-3.216-5.957-4.824-11.204-4.824c-4.443,0-8.22,2.031-11.331,6.094s-4.666,8.93-4.666,14.6v37.07h-10.41v-38.594
					c0-12.779-4.93-19.17-14.79-19.17c-4.57,0-8.337,1.915-11.299,5.744c-2.962,3.831-4.443,8.813-4.443,14.949v37.07h-10.41v-65
					h10.41v10.283h0.254c4.612-7.871,11.34-11.807,20.186-11.807c4.443,0,8.315,1.238,11.616,3.713
					c3.301,2.477,5.564,5.725,6.792,9.744c4.824-8.971,12.018-13.457,21.582-13.457c14.303,0,21.455,8.823,21.455,26.47V380.486z"/>
				<path fill="#009444" d="M636.787,350.589h-45.894c0.168,7.236,2.115,12.822,5.84,16.758c3.723,3.936,8.844,5.903,15.361,5.903
					c7.32,0,14.049-2.412,20.186-7.236v9.775c-5.713,4.147-13.267,6.221-22.661,6.221c-9.184,0-16.399-2.951-21.646-8.855
					c-5.248-5.902-7.871-14.207-7.871-24.914c0-10.113,2.866-18.354,8.601-24.725c5.734-6.368,12.854-9.553,21.36-9.553
					s15.085,2.751,19.741,8.252c4.654,5.502,6.982,13.14,6.982,22.915V350.589z M626.123,341.766
					c-0.043-6.009-1.492-10.685-4.349-14.028c-2.856-3.343-6.823-5.015-11.901-5.015c-4.91,0-9.077,1.757-12.505,5.269
					c-3.428,3.513-5.545,8.104-6.348,13.774H626.123z"/>
				<path fill="#009444" d="M708.008,380.486h-10.41v-11.045h-0.254C692.52,377.82,685.07,382.01,675,382.01
					c-8.168,0-14.695-2.909-19.583-8.729c-4.888-5.817-7.331-13.742-7.331-23.771c0-10.748,2.707-19.36,8.125-25.835
					c5.416-6.475,12.632-9.712,21.646-9.712c8.928,0,15.425,3.513,19.487,10.537h0.254v-40.244h10.41V380.486z M697.598,351.097
					v-9.585c0-5.247-1.736-9.69-5.205-13.33c-3.471-3.639-7.871-5.459-13.203-5.459c-6.348,0-11.342,2.328-14.98,6.982
					c-3.641,4.655-5.459,11.088-5.459,19.297c0,7.49,1.745,13.404,5.236,17.742s8.178,6.506,14.061,6.506
					c5.797,0,10.505-2.095,14.123-6.284S697.598,357.487,697.598,351.097z"/>
				<path fill="#009444" d="M734.414,298.982c-1.863,0-3.45-0.635-4.761-1.904c-1.313-1.27-1.968-2.877-1.968-4.824
					c0-1.946,0.655-3.564,1.968-4.855c1.311-1.291,2.897-1.937,4.761-1.937c1.904,0,3.522,0.646,4.855,1.937s2,2.909,2,4.855
					c0,1.862-0.667,3.449-2,4.761C737.937,298.327,736.318,298.982,734.414,298.982z M739.492,380.486h-10.41v-65h10.41V380.486z"/>
				<path fill="#009444" d="M807.095,380.486h-10.41V370.33h-0.254c-4.529,7.787-11.194,11.68-19.995,11.68
					c-6.475,0-11.543-1.714-15.203-5.142s-5.49-7.977-5.49-13.647c0-12.145,7.15-19.212,21.455-21.201l19.487-2.729
					c0-11.045-4.466-16.567-13.394-16.567c-7.83,0-14.896,2.666-21.201,7.998v-10.664c6.389-4.063,13.752-6.094,22.09-6.094
					c15.275,0,22.915,8.083,22.915,24.248V380.486z M796.685,347.605l-15.679,2.158c-4.824,0.678-8.465,1.873-10.918,3.586
					c-2.455,1.715-3.682,4.751-3.682,9.109c0,3.174,1.132,5.767,3.396,7.775c2.264,2.011,5.278,3.016,9.046,3.016
					c5.162,0,9.426-1.809,12.79-5.428c3.364-3.617,5.047-8.198,5.047-13.742V347.605z"/>
			</g>
		</g>
	</g>
</g>
<g>
	<g>
		<path d="M645.513,158.832c-0.319-6.829-0.644-13.652-0.967-20.478c-3.84,3.992-7.698,7.609-11.571,10.914l-0.939-19.881
			c-6.996,6.348-14.045,11.603-21.138,15.9l-0.891-18.818c-0.131,0.088-0.264,0.166-0.395,0.252
			c3.007-1.961,6.006-4.094,8.996-6.412l-0.913-19.264c-4.389,3.63-8.797,6.852-13.222,9.718l-0.88-18.582
			c7.283-5.094,14.519-11.181,21.701-18.404l-0.932-19.693C495.168,190.893,348.58-39.588,220.837,127.647
			C348.25,8.706,493.781,272.245,623.258,196.786l-0.916-19.311C630.126,172.54,637.853,166.387,645.513,158.832z M347.043,82.726
			c3.441,0.684,6.889,1.465,10.339,2.334C353.932,84.191,350.484,83.41,347.043,82.726z M415.426,124.073
			c10.257,5.24,20.521,10.651,30.779,15.93C435.946,134.726,425.683,129.313,415.426,124.073z"/>
		<path d="M469.584,198.158c3.992-0.006,7.844-0.606,11.497-1.658c-13.334-6.98-26.588-14.771-39.736-22.728H251.911
			c-9.568-0.015-17.165-7.617-17.183-17.18V62.421c0.022-9.589,7.614-17.179,17.183-17.2h217.673
			c9.562,0.016,17.162,7.611,17.183,17.2v20.102c8.196,1.582,16.315,2.766,24.38,3.393V62.421
			c-0.04-22.984-18.589-41.545-41.563-41.587H251.911c-22.983,0.042-41.526,18.608-41.569,41.587v94.171
			c0.043,22.963,18.586,41.525,41.569,41.565h76.848v20.791H290.38c-4.911,0-8.858,3.932-8.858,8.842v17.731h153.514v-17.731
			c0-4.91-3.962-8.842-8.861-8.842h-38.381v-20.791H469.584z"/>
	</g>
	<g>
		<g>
			<g>
				<path fill="#F7941E" d="M642.678,155.997c-0.319-6.829-0.644-13.652-0.967-20.478c-3.84,3.992-7.698,7.609-11.571,10.914
					l-0.939-19.881c-6.996,6.348-14.045,11.603-21.138,15.9l-0.891-18.818c-0.131,0.088-0.264,0.166-0.395,0.252
					c3.007-1.961,6.006-4.094,8.996-6.412l-0.913-19.263c-4.389,3.63-8.797,6.852-13.222,9.718l-0.88-18.582
					c7.283-5.094,14.519-11.181,21.701-18.404l-0.932-19.693c-129.195,136.808-275.783-93.673-403.526,73.563
					C345.416,5.872,490.947,269.41,620.423,193.951l-0.916-19.311C627.291,169.705,635.018,163.552,642.678,155.997z
					 M344.208,79.891c3.441,0.684,6.889,1.465,10.339,2.334C351.097,81.356,347.65,80.575,344.208,79.891z M412.591,121.238
					c10.257,5.24,20.521,10.651,30.779,15.93C433.112,131.891,422.848,126.479,412.591,121.238z"/>
			</g>
			<path fill="#009444" d="M466.75,195.323c3.992-0.006,7.844-0.606,11.497-1.658c-13.334-6.98-26.588-14.771-39.736-22.728H249.077
				c-9.568-0.015-17.165-7.617-17.183-17.18V59.587c0.022-9.589,7.614-17.179,17.183-17.2H466.75
				c9.562,0.016,17.162,7.611,17.183,17.2v20.102c8.196,1.582,16.315,2.766,24.38,3.393V59.587
				C508.272,36.603,489.723,18.042,466.75,18H249.077c-22.983,0.042-41.526,18.608-41.569,41.587v94.171
				c0.043,22.963,18.586,41.525,41.569,41.565h76.848v20.791h-38.379c-4.911,0-8.858,3.932-8.858,8.842v17.731h153.514v-17.731
				c0-4.91-3.962-8.842-8.861-8.842h-38.381v-20.791H466.75z"/>
		</g>
	</g>
</g>
</svg>
